# Generated by tools/lamp_obj_converter.py; do not edit by hand.
mtllib on.mtl

o element_0
v 0.21875 0 0.78125
vt 0 0
v 0.21875 0 0.21875
vt 0 0.5625
v 0.78125 0 0.21875
vt 0.5625 0.5625
v 0.78125 0 0.78125
vt 0.5625 0
usemtl tex_0_base
f 1/1 2/2 3/3 4/4
v 0.21875 0.0625 0.21875
vt 0 0.5625
v 0.21875 0.0625 0.78125
vt 0 0
v 0.78125 0.0625 0.78125
vt 0.5625 0
v 0.78125 0.0625 0.21875
vt 0.5625 0.5625
usemtl tex_0_base
f 5/5 6/6 7/7 8/8
v 0.78125 0.0625 0.21875
vt 0.5625 0.5625
v 0.78125 0 0.21875
vt 0.5625 0.5
v 0.21875 0 0.21875
vt 0 0.5
v 0.21875 0.0625 0.21875
vt 0 0.5625
usemtl tex_0_base
f 9/9 10/10 11/11 12/12
v 0.21875 0.0625 0.78125
vt 0 0
v 0.21875 0 0.78125
vt 0 0.0625
v 0.78125 0 0.78125
vt 0.5625 0.0625
v 0.78125 0.0625 0.78125
vt 0.5625 0
usemtl tex_0_base
f 13/13 14/14 15/15 16/16
v 0.21875 0.0625 0.21875
vt 0 0.5625
v 0.21875 0 0.21875
vt 0.0625 0.5625
v 0.21875 0 0.78125
vt 0.0625 0
v 0.21875 0.0625 0.78125
vt 0 0
usemtl tex_0_base
f 17/17 18/18 19/19 20/20
v 0.78125 0.0625 0.78125
vt 0.5625 0
v 0.78125 0 0.78125
vt 0.5 0
v 0.78125 0 0.21875
vt 0.5 0.5625
v 0.78125 0.0625 0.21875
vt 0.5625 0.5625
usemtl tex_0_base
f 21/21 22/22 23/23 24/24

o element_1
v 0.3125 0.3125 0.90625
vt 0 0.4375
v 0.3125 0.3125 0.84375
vt 0 0.5
v 0.6875 0.3125 0.84375
vt 0.375 0.5
v 0.6875 0.3125 0.90625
vt 0.375 0.4375
usemtl tex_1_base
f 25/25 26/26 27/27 28/28
v 0.3125 0.8125 0.84375
vt 0 0
v 0.3125 0.8125 0.90625
vt 0 0.0625
v 0.6875 0.8125 0.90625
vt 0.375 0.0625
v 0.6875 0.8125 0.84375
vt 0.375 0
usemtl tex_1_base
f 29/29 30/30 31/31 32/32
v 0.6875 0.8125 0.84375
vt 0 0
v 0.6875 0.3125 0.84375
vt 0 0.5
v 0.3125 0.3125 0.84375
vt 0.375 0.5
v 0.3125 0.8125 0.84375
vt 0.375 0
usemtl tex_1_base
f 33/33 34/34 35/35 36/36
v 0.3125 0.8125 0.90625
vt 0 0
v 0.3125 0.3125 0.90625
vt 0 0.5
v 0.6875 0.3125 0.90625
vt 0.375 0.5
v 0.6875 0.8125 0.90625
vt 0.375 0
usemtl tex_1_base
f 37/37 38/38 39/39 40/40
v 0.3125 0.8125 0.84375
vt 0 0
v 0.3125 0.3125 0.84375
vt 0 0.5
v 0.3125 0.3125 0.90625
vt 0.0625 0.5
v 0.3125 0.8125 0.90625
vt 0.0625 0
usemtl tex_1_base
f 41/41 42/42 43/43 44/44
v 0.6875 0.8125 0.90625
vt 0.3125 0
v 0.6875 0.3125 0.90625
vt 0.3125 0.5
v 0.6875 0.3125 0.84375
vt 0.375 0.5
v 0.6875 0.8125 0.84375
vt 0.375 0
usemtl tex_1_base
f 45/45 46/46 47/47 48/48

o element_2
v 0.3125 0.3125 0.15625
vt 0 0.4375
v 0.3125 0.3125 0.09375
vt 0 0.5
v 0.6875 0.3125 0.09375
vt 0.375 0.5
v 0.6875 0.3125 0.15625
vt 0.375 0.4375
usemtl tex_1_base
f 49/49 50/50 51/51 52/52
v 0.3125 0.8125 0.09375
vt 0 0
v 0.3125 0.8125 0.15625
vt 0 0.0625
v 0.6875 0.8125 0.15625
vt 0.375 0.0625
v 0.6875 0.8125 0.09375
vt 0.375 0
usemtl tex_1_base
f 53/53 54/54 55/55 56/56
v 0.6875 0.8125 0.09375
vt 0 0
v 0.6875 0.3125 0.09375
vt 0 0.5
v 0.3125 0.3125 0.09375
vt 0.375 0.5
v 0.3125 0.8125 0.09375
vt 0.375 0
usemtl tex_1_base
f 57/57 58/58 59/59 60/60
v 0.3125 0.8125 0.15625
vt 0 0
v 0.3125 0.3125 0.15625
vt 0 0.5
v 0.6875 0.3125 0.15625
vt 0.375 0.5
v 0.6875 0.8125 0.15625
vt 0.375 0
usemtl tex_1_base
f 61/61 62/62 63/63 64/64
v 0.3125 0.8125 0.09375
vt 0 0
v 0.3125 0.3125 0.09375
vt 0 0.5
v 0.3125 0.3125 0.15625
vt 0.0625 0.5
v 0.3125 0.8125 0.15625
vt 0.0625 0
usemtl tex_1_base
f 65/65 66/66 67/67 68/68
v 0.6875 0.8125 0.15625
vt 0.3125 0
v 0.6875 0.3125 0.15625
vt 0.3125 0.5
v 0.6875 0.3125 0.09375
vt 0.375 0.5
v 0.6875 0.8125 0.09375
vt 0.375 0
usemtl tex_1_base
f 69/69 70/70 71/71 72/72

o element_3
v 0.0937497451 0.3125 0.687499968
vt 0.375 0.4375
v 0.137943919 0.3125 0.643305794
vt 0.375 0.5
v 0.356705079 0.3125 0.862066954
vt 0.684375 0.5
v 0.312510906 0.3125 0.906261128
vt 0.684375 0.4375
usemtl tex_1_base
f 73/73 74/74 75/75 76/76
v 0.137943919 0.8125 0.643305794
vt 0.375 0
v 0.0937497451 0.8125 0.687499968
vt 0.375 0.0625
v 0.312510906 0.8125 0.906261128
vt 0.684375 0.0625
v 0.356705079 0.8125 0.862066954
vt 0.684375 0
usemtl tex_1_base
f 77/77 78/78 79/79 80/80
v 0.356705079 0.8125 0.862066954
vt 0.378125 0
v 0.356705079 0.3125 0.862066954
vt 0.378125 0.5
v 0.137943919 0.3125 0.643305794
vt 0.6875 0.5
v 0.137943919 0.8125 0.643305794
vt 0.6875 0
usemtl tex_1_base
f 81/81 82/82 83/83 84/84
v 0.0937497451 0.8125 0.687499968
vt 0.375 0
v 0.0937497451 0.3125 0.687499968
vt 0.375 0.5
v 0.312510906 0.3125 0.906261128
vt 0.684375 0.5
v 0.312510906 0.8125 0.906261128
vt 0.684375 0
usemtl tex_1_base
f 85/85 86/86 87/87 88/88
v 0.137943919 0.8125 0.643305794
vt 0.375 0
v 0.137943919 0.3125 0.643305794
vt 0.375 0.5
v 0.0937497451 0.3125 0.687499968
vt 0.4375 0.5
v 0.0937497451 0.8125 0.687499968
vt 0.4375 0
usemtl tex_1_base
f 89/89 90/90 91/91 92/92
v 0.312510906 0.8125 0.906261128
vt 0.625 0
v 0.312510906 0.3125 0.906261128
vt 0.625 0.5
v 0.356705079 0.3125 0.862066954
vt 0.6875 0.5
v 0.356705079 0.8125 0.862066954
vt 0.6875 0
usemtl tex_1_base
f 93/93 94/94 95/95 96/96

o element_4
v 0.137933093 0.3125 0.356705255
vt 0.375 0.4375
v 0.093738919 0.3125 0.312511081
vt 0.375 0.5
v 0.312500079 0.3125 0.0937499206
vt 0.684375 0.5
v 0.356694253 0.3125 0.137944094
vt 0.684375 0.4375
usemtl tex_1_base
f 97/97 98/98 99/99 100/100
v 0.093738919 0.8125 0.312511081
vt 0.375 0
v 0.137933093 0.8125 0.356705255
vt 0.375 0.0625
v 0.356694253 0.8125 0.137944094
vt 0.684375 0.0625
v 0.312500079 0.8125 0.0937499206
vt 0.684375 0
usemtl tex_1_base
f 101/101 102/102 103/103 104/104
v 0.312500079 0.8125 0.0937499206
vt 0.378125 0
v 0.312500079 0.3125 0.0937499206
vt 0.378125 0.5
v 0.093738919 0.3125 0.312511081
vt 0.6875 0.5
v 0.093738919 0.8125 0.312511081
vt 0.6875 0
usemtl tex_1_base
f 105/105 106/106 107/107 108/108
v 0.137933093 0.8125 0.356705255
vt 0.375 0
v 0.137933093 0.3125 0.356705255
vt 0.375 0.5
v 0.356694253 0.3125 0.137944094
vt 0.684375 0.5
v 0.356694253 0.8125 0.137944094
vt 0.684375 0
usemtl tex_1_base
f 109/109 110/110 111/111 112/112
v 0.093738919 0.8125 0.312511081
vt 0.375 0
v 0.093738919 0.3125 0.312511081
vt 0.375 0.5
v 0.137933093 0.3125 0.356705255
vt 0.4375 0.5
v 0.137933093 0.8125 0.356705255
vt 0.4375 0
usemtl tex_1_base
f 113/113 114/114 115/115 116/116
v 0.356694253 0.8125 0.137944094
vt 0.625 0
v 0.356694253 0.3125 0.137944094
vt 0.625 0.5
v 0.312500079 0.3125 0.0937499206
vt 0.6875 0.5
v 0.312500079 0.8125 0.0937499206
vt 0.6875 0
usemtl tex_1_base
f 117/117 118/118 119/119 120/120

o element_5
v 0.687488718 0.3125 0.90626088
vt 0.375 0.4375
v 0.643294544 0.3125 0.862066706
vt 0.375 0.5
v 0.862055704 0.3125 0.643305546
vt 0.684375 0.5
v 0.906249878 0.3125 0.687499719
vt 0.684375 0.4375
usemtl tex_1_base
f 121/121 122/122 123/123 124/124
v 0.643294544 0.8125 0.862066706
vt 0.375 0
v 0.687488718 0.8125 0.90626088
vt 0.375 0.0625
v 0.906249878 0.8125 0.687499719
vt 0.684375 0.0625
v 0.862055704 0.8125 0.643305546
vt 0.684375 0
usemtl tex_1_base
f 125/125 126/126 127/127 128/128
v 0.862055704 0.8125 0.643305546
vt 0.378125 0
v 0.862055704 0.3125 0.643305546
vt 0.378125 0.5
v 0.643294544 0.3125 0.862066706
vt 0.6875 0.5
v 0.643294544 0.8125 0.862066706
vt 0.6875 0
usemtl tex_1_base
f 129/129 130/130 131/131 132/132
v 0.687488718 0.8125 0.90626088
vt 0.375 0
v 0.687488718 0.3125 0.90626088
vt 0.375 0.5
v 0.906249878 0.3125 0.687499719
vt 0.684375 0.5
v 0.906249878 0.8125 0.687499719
vt 0.684375 0
usemtl tex_1_base
f 133/133 134/134 135/135 136/136
v 0.643294544 0.8125 0.862066706
vt 0.375 0
v 0.643294544 0.3125 0.862066706
vt 0.375 0.5
v 0.687488718 0.3125 0.90626088
vt 0.4375 0.5
v 0.687488718 0.8125 0.90626088
vt 0.4375 0
usemtl tex_1_base
f 137/137 138/138 139/139 140/140
v 0.906249878 0.8125 0.687499719
vt 0.625 0
v 0.906249878 0.3125 0.687499719
vt 0.625 0.5
v 0.862055704 0.3125 0.643305546
vt 0.6875 0.5
v 0.862055704 0.8125 0.643305546
vt 0.6875 0
usemtl tex_1_base
f 141/141 142/142 143/143 144/144

o element_6
v 0.643294745 0.3125 0.137933093
vt 0.375 0.4375
v 0.687488919 0.3125 0.093738919
vt 0.375 0.5
v 0.906250079 0.3125 0.312500079
vt 0.684375 0.5
v 0.862055906 0.3125 0.356694253
vt 0.684375 0.4375
usemtl tex_1_base
f 145/145 146/146 147/147 148/148
v 0.687488919 0.8125 0.093738919
vt 0.375 0
v 0.643294745 0.8125 0.137933093
vt 0.375 0.0625
v 0.862055906 0.8125 0.356694253
vt 0.684375 0.0625
v 0.906250079 0.8125 0.312500079
vt 0.684375 0
usemtl tex_1_base
f 149/149 150/150 151/151 152/152
v 0.906250079 0.8125 0.312500079
vt 0.378125 0
v 0.906250079 0.3125 0.312500079
vt 0.378125 0.5
v 0.687488919 0.3125 0.093738919
vt 0.6875 0.5
v 0.687488919 0.8125 0.093738919
vt 0.6875 0
usemtl tex_1_base
f 153/153 154/154 155/155 156/156
v 0.643294745 0.8125 0.137933093
vt 0.375 0
v 0.643294745 0.3125 0.137933093
vt 0.375 0.5
v 0.862055906 0.3125 0.356694253
vt 0.684375 0.5
v 0.862055906 0.8125 0.356694253
vt 0.684375 0
usemtl tex_1_base
f 157/157 158/158 159/159 160/160
v 0.687488919 0.8125 0.093738919
vt 0.375 0
v 0.687488919 0.3125 0.093738919
vt 0.375 0.5
v 0.643294745 0.3125 0.137933093
vt 0.4375 0.5
v 0.643294745 0.8125 0.137933093
vt 0.4375 0
usemtl tex_1_base
f 161/161 162/162 163/163 164/164
v 0.862055906 0.8125 0.356694253
vt 0.625 0
v 0.862055906 0.3125 0.356694253
vt 0.625 0.5
v 0.906250079 0.3125 0.312500079
vt 0.6875 0.5
v 0.906250079 0.8125 0.312500079
vt 0.6875 0
usemtl tex_1_base
f 165/165 166/166 167/167 168/168

o element_7
v 0.09375 0.3125 0.3125
vt 0 0.4375
v 0.15625 0.3125 0.3125
vt 0 0.5
v 0.15625 0.3125 0.6875
vt 0.375 0.5
v 0.09375 0.3125 0.6875
vt 0.375 0.4375
usemtl tex_1_base
f 169/169 170/170 171/171 172/172
v 0.15625 0.8125 0.3125
vt 0 0
v 0.09375 0.8125 0.3125
vt 0 0.0625
v 0.09375 0.8125 0.6875
vt 0.375 0.0625
v 0.15625 0.8125 0.6875
vt 0.375 0
usemtl tex_1_base
f 173/173 174/174 175/175 176/176
v 0.15625 0.8125 0.6875
vt 0 0
v 0.15625 0.3125 0.6875
vt 0 0.5
v 0.15625 0.3125 0.3125
vt 0.375 0.5
v 0.15625 0.8125 0.3125
vt 0.375 0
usemtl tex_1_base
f 177/177 178/178 179/179 180/180
v 0.09375 0.8125 0.3125
vt 0 0
v 0.09375 0.3125 0.3125
vt 0 0.5
v 0.09375 0.3125 0.6875
vt 0.375 0.5
v 0.09375 0.8125 0.6875
vt 0.375 0
usemtl tex_1_base
f 181/181 182/182 183/183 184/184
v 0.15625 0.8125 0.3125
vt 0 0
v 0.15625 0.3125 0.3125
vt 0 0.5
v 0.09375 0.3125 0.3125
vt 0.0625 0.5
v 0.09375 0.8125 0.3125
vt 0.0625 0
usemtl tex_1_base
f 185/185 186/186 187/187 188/188
v 0.09375 0.8125 0.6875
vt 0.3125 0
v 0.09375 0.3125 0.6875
vt 0.3125 0.5
v 0.15625 0.3125 0.6875
vt 0.375 0.5
v 0.15625 0.8125 0.6875
vt 0.375 0
usemtl tex_1_base
f 189/189 190/190 191/191 192/192

o element_8
v 0.84375 0.3125 0.3125
vt 0 0.4375
v 0.90625 0.3125 0.3125
vt 0 0.5
v 0.90625 0.3125 0.6875
vt 0.375 0.5
v 0.84375 0.3125 0.6875
vt 0.375 0.4375
usemtl tex_1_base
f 193/193 194/194 195/195 196/196
v 0.90625 0.8125 0.3125
vt 0 0
v 0.84375 0.8125 0.3125
vt 0 0.0625
v 0.84375 0.8125 0.6875
vt 0.375 0.0625
v 0.90625 0.8125 0.6875
vt 0.375 0
usemtl tex_1_base
f 197/197 198/198 199/199 200/200
v 0.90625 0.8125 0.6875
vt 0 0
v 0.90625 0.3125 0.6875
vt 0 0.5
v 0.90625 0.3125 0.3125
vt 0.375 0.5
v 0.90625 0.8125 0.3125
vt 0.375 0
usemtl tex_1_base
f 201/201 202/202 203/203 204/204
v 0.84375 0.8125 0.3125
vt 0 0
v 0.84375 0.3125 0.3125
vt 0 0.5
v 0.84375 0.3125 0.6875
vt 0.375 0.5
v 0.84375 0.8125 0.6875
vt 0.375 0
usemtl tex_1_base
f 205/205 206/206 207/207 208/208
v 0.90625 0.8125 0.3125
vt 0 0
v 0.90625 0.3125 0.3125
vt 0 0.5
v 0.84375 0.3125 0.3125
vt 0.0625 0.5
v 0.84375 0.8125 0.3125
vt 0.0625 0
usemtl tex_1_base
f 209/209 210/210 211/211 212/212
v 0.84375 0.8125 0.6875
vt 0.3125 0
v 0.84375 0.3125 0.6875
vt 0.3125 0.5
v 0.90625 0.3125 0.6875
vt 0.375 0.5
v 0.90625 0.8125 0.6875
vt 0.375 0
usemtl tex_1_base
f 213/213 214/214 215/215 216/216

o element_9
v 0.46875 0.375 0.84375
vt 1 0.6875
v 0.46875 0.375 0.15625
vt 1 0
v 0.53125 0.375 0.15625
vt 0.9375 0
v 0.53125 0.375 0.84375
vt 0.9375 0.6875
usemtl tex_0_base
f 217/217 218/218 219/219 220/220
v 0.46875 0.4375 0.15625
vt 0.9375 0
v 0.46875 0.4375 0.84375
vt 0.9375 0.6875
v 0.53125 0.4375 0.84375
vt 1 0.6875
v 0.53125 0.4375 0.15625
vt 1 0
usemtl tex_0_base
f 221/221 222/222 223/223 224/224
v 0.53125 0.4375 0.15625
vt 0.375 0.0625
v 0.53125 0.375 0.15625
vt 0.375 0.125
v 0.46875 0.375 0.15625
vt 0.4375 0.125
v 0.46875 0.4375 0.15625
vt 0.4375 0.0625
usemtl tex_0_base
f 225/225 226/226 227/227 228/228
v 0.46875 0.4375 0.84375
vt 0 0.0625
v 0.46875 0.375 0.84375
vt 0 0.125
v 0.53125 0.375 0.84375
vt 0.0625 0.125
v 0.53125 0.4375 0.84375
vt 0.0625 0.0625
usemtl tex_0_base
f 229/229 230/230 231/231 232/232
v 0.46875 0.4375 0.15625
vt 1 0
v 0.46875 0.375 0.15625
vt 0.9375 0
v 0.46875 0.375 0.84375
vt 0.9375 0.6875
v 0.46875 0.4375 0.84375
vt 1 0.6875
usemtl tex_0_base
f 233/233 234/234 235/235 236/236
v 0.53125 0.4375 0.84375
vt 0.9375 0.6875
v 0.53125 0.375 0.84375
vt 1 0.6875
v 0.53125 0.375 0.15625
vt 1 0
v 0.53125 0.4375 0.15625
vt 0.9375 0
usemtl tex_0_base
f 237/237 238/238 239/239 240/240

o element_10
v 0.15625 0.6875 0.46875
vt 1 0.6875
v 0.84375 0.6875 0.46875
vt 1 0
v 0.84375 0.6875 0.53125
vt 0.9375 0
v 0.15625 0.6875 0.53125
vt 0.9375 0.6875
usemtl tex_0_base
f 241/241 242/242 243/243 244/244
v 0.84375 0.75 0.46875
vt 0.9375 0
v 0.15625 0.75 0.46875
vt 0.9375 0.6875
v 0.15625 0.75 0.53125
vt 1 0.6875
v 0.84375 0.75 0.53125
vt 1 0
usemtl tex_0_base
f 245/245 246/246 247/247 248/248
v 0.84375 0.75 0.53125
vt 0.375 0.0625
v 0.84375 0.6875 0.53125
vt 0.375 0.125
v 0.84375 0.6875 0.46875
vt 0.4375 0.125
v 0.84375 0.75 0.46875
vt 0.4375 0.0625
usemtl tex_0_base
f 249/249 250/250 251/251 252/252
v 0.15625 0.75 0.46875
vt 0 0.0625
v 0.15625 0.6875 0.46875
vt 0 0.125
v 0.15625 0.6875 0.53125
vt 0.0625 0.125
v 0.15625 0.75 0.53125
vt 0.0625 0.0625
usemtl tex_0_base
f 253/253 254/254 255/255 256/256
v 0.84375 0.75 0.46875
vt 1 0
v 0.84375 0.6875 0.46875
vt 0.9375 0
v 0.15625 0.6875 0.46875
vt 0.9375 0.6875
v 0.15625 0.75 0.46875
vt 1 0.6875
usemtl tex_0_base
f 257/257 258/258 259/259 260/260
v 0.15625 0.75 0.53125
vt 0.9375 0.6875
v 0.15625 0.6875 0.53125
vt 1 0.6875
v 0.84375 0.6875 0.53125
vt 1 0
v 0.84375 0.75 0.53125
vt 0.9375 0
usemtl tex_0_base
f 261/261 262/262 263/263 264/264

o element_11
v 0.46875 0.6875 0.84375
vt 1 0.6875
v 0.46875 0.6875 0.15625
vt 1 0
v 0.53125 0.6875 0.15625
vt 0.9375 0
v 0.53125 0.6875 0.84375
vt 0.9375 0.6875
usemtl tex_0_base
f 265/265 266/266 267/267 268/268
v 0.46875 0.75 0.15625
vt 0.9375 0
v 0.46875 0.75 0.84375
vt 0.9375 0.6875
v 0.53125 0.75 0.84375
vt 1 0.6875
v 0.53125 0.75 0.15625
vt 1 0
usemtl tex_0_base
f 269/269 270/270 271/271 272/272
v 0.53125 0.75 0.15625
vt 0.375 0.0625
v 0.53125 0.6875 0.15625
vt 0.375 0.125
v 0.46875 0.6875 0.15625
vt 0.4375 0.125
v 0.46875 0.75 0.15625
vt 0.4375 0.0625
usemtl tex_0_base
f 273/273 274/274 275/275 276/276
v 0.46875 0.75 0.84375
vt 0 0.0625
v 0.46875 0.6875 0.84375
vt 0 0.125
v 0.53125 0.6875 0.84375
vt 0.0625 0.125
v 0.53125 0.75 0.84375
vt 0.0625 0.0625
usemtl tex_0_base
f 277/277 278/278 279/279 280/280
v 0.46875 0.75 0.15625
vt 1 0
v 0.46875 0.6875 0.15625
vt 0.9375 0
v 0.46875 0.6875 0.84375
vt 0.9375 0.6875
v 0.46875 0.75 0.84375
vt 1 0.6875
usemtl tex_0_base
f 281/281 282/282 283/283 284/284
v 0.53125 0.75 0.84375
vt 0.9375 0.6875
v 0.53125 0.6875 0.84375
vt 1 0.6875
v 0.53125 0.6875 0.15625
vt 1 0
v 0.53125 0.75 0.15625
vt 0.9375 0
usemtl tex_0_base
f 285/285 286/286 287/287 288/288

o element_12
v 0.15625 0.375 0.46875
vt 1 0.6875
v 0.84375 0.375 0.46875
vt 1 0
v 0.84375 0.375 0.53125
vt 0.9375 0
v 0.15625 0.375 0.53125
vt 0.9375 0.6875
usemtl tex_0_base
f 289/289 290/290 291/291 292/292
v 0.84375 0.4375 0.46875
vt 0.9375 0
v 0.15625 0.4375 0.46875
vt 0.9375 0.6875
v 0.15625 0.4375 0.53125
vt 1 0.6875
v 0.84375 0.4375 0.53125
vt 1 0
usemtl tex_0_base
f 293/293 294/294 295/295 296/296
v 0.84375 0.4375 0.53125
vt 0.375 0.0625
v 0.84375 0.375 0.53125
vt 0.375 0.125
v 0.84375 0.375 0.46875
vt 0.4375 0.125
v 0.84375 0.4375 0.46875
vt 0.4375 0.0625
usemtl tex_0_base
f 297/297 298/298 299/299 300/300
v 0.15625 0.4375 0.46875
vt 0 0.0625
v 0.15625 0.375 0.46875
vt 0 0.125
v 0.15625 0.375 0.53125
vt 0.0625 0.125
v 0.15625 0.4375 0.53125
vt 0.0625 0.0625
usemtl tex_0_base
f 301/301 302/302 303/303 304/304
v 0.84375 0.4375 0.46875
vt 1 0
v 0.84375 0.375 0.46875
vt 0.9375 0
v 0.15625 0.375 0.46875
vt 0.9375 0.6875
v 0.15625 0.4375 0.46875
vt 1 0.6875
usemtl tex_0_base
f 305/305 306/306 307/307 308/308
v 0.15625 0.4375 0.53125
vt 0.9375 0.6875
v 0.15625 0.375 0.53125
vt 1 0.6875
v 0.84375 0.375 0.53125
vt 1 0
v 0.84375 0.4375 0.53125
vt 0.9375 0
usemtl tex_0_base
f 309/309 310/310 311/311 312/312

o element_13
v 0.375 0.0625 0.625
vt 0.5625 0
v 0.375 0.0625 0.375
vt 0.5625 0.25
v 0.625 0.0625 0.375
vt 0.8125 0.25
v 0.625 0.0625 0.625
vt 0.8125 0
usemtl tex_0_base
f 313/313 314/314 315/315 316/316
v 0.375 0.1875 0.375
vt 0.5625 0
v 0.375 0.1875 0.625
vt 0.5625 0.25
v 0.625 0.1875 0.625
vt 0.8125 0.25
v 0.625 0.1875 0.375
vt 0.8125 0
usemtl tex_0_base
f 317/317 318/318 319/319 320/320
v 0.625 0.1875 0.375
vt 0.8125 0.25
v 0.625 0.0625 0.375
vt 0.9375 0.25
v 0.375 0.0625 0.375
vt 0.9375 0
v 0.375 0.1875 0.375
vt 0.8125 0
usemtl tex_0_base
f 321/321 322/322 323/323 324/324
v 0.375 0.1875 0.625
vt 0.8125 0.25
v 0.375 0.0625 0.625
vt 0.9375 0.25
v 0.625 0.0625 0.625
vt 0.9375 0
v 0.625 0.1875 0.625
vt 0.8125 0
usemtl tex_0_base
f 325/325 326/326 327/327 328/328
v 0.375 0.1875 0.375
vt 0.8125 0.25
v 0.375 0.0625 0.375
vt 0.9375 0.25
v 0.375 0.0625 0.625
vt 0.9375 0
v 0.375 0.1875 0.625
vt 0.8125 0
usemtl tex_0_base
f 329/329 330/330 331/331 332/332
v 0.625 0.1875 0.625
vt 0.8125 0.25
v 0.625 0.0625 0.625
vt 0.9375 0.25
v 0.625 0.0625 0.375
vt 0.9375 0
v 0.625 0.1875 0.375
vt 0.8125 0
usemtl tex_0_base
f 333/333 334/334 335/335 336/336

o element_14
v 0.4375 0.1875 0.5625
vt 0.6875 0.25
v 0.4375 0.1875 0.4375
vt 0.6875 0.375
v 0.5625 0.1875 0.4375
vt 0.8125 0.375
v 0.5625 0.1875 0.5625
vt 0.8125 0.25
usemtl tex_0_base
f 337/337 338/338 339/339 340/340
v 0.4375 0.4375 0.4375
vt 0.6875 0.25
v 0.4375 0.4375 0.5625
vt 0.6875 0.375
v 0.5625 0.4375 0.5625
vt 0.8125 0.375
v 0.5625 0.4375 0.4375
vt 0.8125 0.25
usemtl tex_0_base
f 341/341 342/342 343/343 344/344
v 0.5625 0.4375 0.4375
vt 0.5625 0.25
v 0.5625 0.1875 0.4375
vt 0.5625 0.5
v 0.4375 0.1875 0.4375
vt 0.6875 0.5
v 0.4375 0.4375 0.4375
vt 0.6875 0.25
usemtl tex_0_base
f 345/345 346/346 347/347 348/348
v 0.4375 0.4375 0.5625
vt 0.5625 0.25
v 0.4375 0.1875 0.5625
vt 0.5625 0.5
v 0.5625 0.1875 0.5625
vt 0.6875 0.5
v 0.5625 0.4375 0.5625
vt 0.6875 0.25
usemtl tex_0_base
f 349/349 350/350 351/351 352/352
v 0.4375 0.4375 0.4375
vt 0.6875 0.25
v 0.4375 0.1875 0.4375
vt 0.6875 0.5
v 0.4375 0.1875 0.5625
vt 0.5625 0.5
v 0.4375 0.4375 0.5625
vt 0.5625 0.25
usemtl tex_0_base
f 353/353 354/354 355/355 356/356
v 0.5625 0.4375 0.5625
vt 0.6875 0.25
v 0.5625 0.1875 0.5625
vt 0.6875 0.5
v 0.5625 0.1875 0.4375
vt 0.5625 0.5
v 0.5625 0.4375 0.4375
vt 0.5625 0.25
usemtl tex_0_base
f 357/357 358/358 359/359 360/360

o element_15
v 0.4375 0.688125 0.5625
vt 0.8125 0.3125
v 0.4375 0.688125 0.4375
vt 0.8125 0.4375
v 0.5625 0.688125 0.4375
vt 0.9375 0.4375
v 0.5625 0.688125 0.5625
vt 0.9375 0.3125
usemtl tex_0_base
f 361/361 362/362 363/363 364/364
v 0.4375 0.750625 0.4375
vt 0.6875 0.25
v 0.4375 0.750625 0.5625
vt 0.6875 0.375
v 0.5625 0.750625 0.5625
vt 0.8125 0.375
v 0.5625 0.750625 0.4375
vt 0.8125 0.25
usemtl tex_0_base
f 365/365 366/366 367/367 368/368
v 0.5625 0.750625 0.4375
vt 0.8125 0.4375
v 0.5625 0.688125 0.4375
vt 0.8125 0.5
v 0.4375 0.688125 0.4375
vt 0.9375 0.5
v 0.4375 0.750625 0.4375
vt 0.9375 0.4375
usemtl tex_0_base
f 369/369 370/370 371/371 372/372
v 0.4375 0.750625 0.5625
vt 0.8125 0.25
v 0.4375 0.688125 0.5625
vt 0.8125 0.3125
v 0.5625 0.688125 0.5625
vt 0.9375 0.3125
v 0.5625 0.750625 0.5625
vt 0.9375 0.25
usemtl tex_0_base
f 373/373 374/374 375/375 376/376
v 0.4375 0.750625 0.4375
vt 0.6875 0.375
v 0.4375 0.688125 0.4375
vt 0.6875 0.4375
v 0.4375 0.688125 0.5625
vt 0.8125 0.4375
v 0.4375 0.750625 0.5625
vt 0.8125 0.375
usemtl tex_0_base
f 377/377 378/378 379/379 380/380
v 0.5625 0.750625 0.5625
vt 0.6875 0.4375
v 0.5625 0.688125 0.5625
vt 0.6875 0.5
v 0.5625 0.688125 0.4375
vt 0.8125 0.5
v 0.5625 0.750625 0.4375
vt 0.8125 0.4375
usemtl tex_0_base
f 381/381 382/382 383/383 384/384

o element_16
v 0.40625 0.4375 0.59375
vt 0.1875 0.5625
v 0.40625 0.4375 0.40625
vt 0.1875 0.75
v 0.59375 0.4375 0.40625
vt 0.375 0.75
v 0.59375 0.4375 0.59375
vt 0.375 0.5625
usemtl tex_0_glow
f 385/385 386/386 387/387 388/388
v 0.40625 0.6875 0.40625
vt 0.375 0.5625
v 0.40625 0.6875 0.59375
vt 0.375 0.75
v 0.59375 0.6875 0.59375
vt 0.5625 0.75
v 0.59375 0.6875 0.40625
vt 0.5625 0.5625
usemtl tex_0_glow
f 389/389 390/390 391/391 392/392
v 0.59375 0.6875 0.40625
vt 0 0.5625
v 0.59375 0.4375 0.40625
vt 0 0.8125
v 0.40625 0.4375 0.40625
vt 0.1875 0.8125
v 0.40625 0.6875 0.40625
vt 0.1875 0.5625
usemtl tex_0_glow
f 393/393 394/394 395/395 396/396
v 0.40625 0.6875 0.59375
vt 0 0.5625
v 0.40625 0.4375 0.59375
vt 0 0.8125
v 0.59375 0.4375 0.59375
vt 0.1875 0.8125
v 0.59375 0.6875 0.59375
vt 0.1875 0.5625
usemtl tex_0_glow
f 397/397 398/398 399/399 400/400
v 0.40625 0.6875 0.40625
vt 0 0.5625
v 0.40625 0.4375 0.40625
vt 0 0.8125
v 0.40625 0.4375 0.59375
vt 0.1875 0.8125
v 0.40625 0.6875 0.59375
vt 0.1875 0.5625
usemtl tex_0_glow
f 401/401 402/402 403/403 404/404
v 0.59375 0.6875 0.59375
vt 0 0.5625
v 0.59375 0.4375 0.59375
vt 0 0.8125
v 0.59375 0.4375 0.40625
vt 0.1875 0.8125
v 0.59375 0.6875 0.40625
vt 0.1875 0.5625
usemtl tex_0_glow
f 405/405 406/406 407/407 408/408
