# Generated by tools/lamp_obj_converter.py; do not edit by hand.
mtllib down_off.mtl

o element_0
v 0.9375 1.1875 0.125
vt 0.9375 0.125
v 0.9375 1.1875 0.0625
vt 0.9375 0.0625
v 0.125 1.1875 0.0625
vt 0.125 0.0625
v 0.125 1.1875 0.125
vt 0.125 0.125
usemtl tex_0_base
f 1/1 2/2 3/3 4/4
v 0.9375 0.9375 0.0625
vt 0.8125 0.0625
v 0.9375 0.9375 0.125
vt 0.8125 0
v 0.125 0.9375 0.125
vt 0 0
v 0.125 0.9375 0.0625
vt 0 0.0625
usemtl tex_1_base
f 5/5 6/6 7/7 8/8
v 0.125 0.9375 0.0625
vt 0 0
v 0.125 1.1875 0.0625
vt 0 0.25
v 0.9375 1.1875 0.0625
vt 0.8125 0.25
v 0.9375 0.9375 0.0625
vt 0.8125 0
usemtl tex_1_base
f 9/9 10/10 11/11 12/12
v 0.9375 0.9375 0.125
vt 0.8125 0
v 0.9375 1.1875 0.125
vt 0.8125 0.25
v 0.125 1.1875 0.125
vt 0 0.25
v 0.125 0.9375 0.125
vt 0 0
usemtl tex_1_base
f 13/13 14/14 15/15 16/16
v 0.9375 0.9375 0.0625
vt 0.75 0
v 0.9375 1.1875 0.0625
vt 0.75 0.25
v 0.9375 1.1875 0.125
vt 0.8125 0.25
v 0.9375 0.9375 0.125
vt 0.8125 0
usemtl tex_1_base
f 17/17 18/18 19/19 20/20

o element_1
v 0.125 1.1875 0.0625
vt 0.9375 0.125
v 0.0625 1.1875 0.0625
vt 0.9375 0.0625
v 0.0625 1.1875 0.875
vt 0.125 0.0625
v 0.125 1.1875 0.875
vt 0.125 0.125
usemtl tex_0_base
f 21/21 22/22 23/23 24/24
v 0.0625 0.9375 0.0625
vt 0.8125 0.0625
v 0.125 0.9375 0.0625
vt 0.8125 0
v 0.125 0.9375 0.875
vt 0 0
v 0.0625 0.9375 0.875
vt 0 0.0625
usemtl tex_1_base
f 25/25 26/26 27/27 28/28
v 0.0625 0.9375 0.875
vt 0 0
v 0.0625 1.1875 0.875
vt 0 0.25
v 0.0625 1.1875 0.0625
vt 0.8125 0.25
v 0.0625 0.9375 0.0625
vt 0.8125 0
usemtl tex_1_base
f 29/29 30/30 31/31 32/32
v 0.125 0.9375 0.0625
vt 0.8125 0
v 0.125 1.1875 0.0625
vt 0.8125 0.25
v 0.125 1.1875 0.875
vt 0 0.25
v 0.125 0.9375 0.875
vt 0 0
usemtl tex_1_base
f 33/33 34/34 35/35 36/36
v 0.0625 0.9375 0.0625
vt 0.75 0
v 0.0625 1.1875 0.0625
vt 0.75 0.25
v 0.125 1.1875 0.0625
vt 0.8125 0.25
v 0.125 0.9375 0.0625
vt 0.8125 0
usemtl tex_1_base
f 37/37 38/38 39/39 40/40

o element_2
v 0.875 1.1875 0.9375
vt 0.9375 0.125
v 0.9375 1.1875 0.9375
vt 0.9375 0.0625
v 0.9375 1.1875 0.125
vt 0.125 0.0625
v 0.875 1.1875 0.125
vt 0.125 0.125
usemtl tex_0_base
f 41/41 42/42 43/43 44/44
v 0.9375 0.9375 0.9375
vt 0.8125 0.0625
v 0.875 0.9375 0.9375
vt 0.8125 0
v 0.875 0.9375 0.125
vt 0 0
v 0.9375 0.9375 0.125
vt 0 0.0625
usemtl tex_1_base
f 45/45 46/46 47/47 48/48
v 0.9375 0.9375 0.125
vt 0 0
v 0.9375 1.1875 0.125
vt 0 0.25
v 0.9375 1.1875 0.9375
vt 0.8125 0.25
v 0.9375 0.9375 0.9375
vt 0.8125 0
usemtl tex_1_base
f 49/49 50/50 51/51 52/52
v 0.875 0.9375 0.9375
vt 0.8125 0
v 0.875 1.1875 0.9375
vt 0.8125 0.25
v 0.875 1.1875 0.125
vt 0 0.25
v 0.875 0.9375 0.125
vt 0 0
usemtl tex_1_base
f 53/53 54/54 55/55 56/56
v 0.9375 0.9375 0.9375
vt 0.75 0
v 0.9375 1.1875 0.9375
vt 0.75 0.25
v 0.875 1.1875 0.9375
vt 0.8125 0.25
v 0.875 0.9375 0.9375
vt 0.8125 0
usemtl tex_1_base
f 57/57 58/58 59/59 60/60

o element_3
v 0.0625 1.1875 0.875
vt 0.9375 0.125
v 0.0625 1.1875 0.9375
vt 0.9375 0.0625
v 0.875 1.1875 0.9375
vt 0.125 0.0625
v 0.875 1.1875 0.875
vt 0.125 0.125
usemtl tex_0_base
f 61/61 62/62 63/63 64/64
v 0.0625 0.9375 0.9375
vt 0.8125 0.0625
v 0.0625 0.9375 0.875
vt 0.8125 0
v 0.875 0.9375 0.875
vt 0 0
v 0.875 0.9375 0.9375
vt 0 0.0625
usemtl tex_1_base
f 65/65 66/66 67/67 68/68
v 0.875 0.9375 0.9375
vt 0 0
v 0.875 1.1875 0.9375
vt 0 0.25
v 0.0625 1.1875 0.9375
vt 0.8125 0.25
v 0.0625 0.9375 0.9375
vt 0.8125 0
usemtl tex_1_base
f 69/69 70/70 71/71 72/72
v 0.0625 0.9375 0.875
vt 0.8125 0
v 0.0625 1.1875 0.875
vt 0.8125 0.25
v 0.875 1.1875 0.875
vt 0 0.25
v 0.875 0.9375 0.875
vt 0 0
usemtl tex_1_base
f 73/73 74/74 75/75 76/76
v 0.0625 0.9375 0.9375
vt 0.75 0
v 0.0625 1.1875 0.9375
vt 0.75 0.25
v 0.0625 1.1875 0.875
vt 0.8125 0.25
v 0.0625 0.9375 0.875
vt 0.8125 0
usemtl tex_1_base
f 77/77 78/78 79/79 80/80

o element_4
v 0.875 1.1875 0.875
vt 0.125 0.125
v 0.875 1.1875 0.125
vt 0.125 0.875
v 0.125 1.1875 0.125
vt 0.875 0.875
v 0.125 1.1875 0.875
vt 0.875 0.125
usemtl tex_0_base
f 81/81 82/82 83/83 84/84
v 0.875 0.96875 0.125
vt 0 0.25
v 0.875 0.96875 0.875
vt 0 1
v 0.125 0.96875 0.875
vt 0.75 1
v 0.125 0.96875 0.125
vt 0.75 0.25
usemtl tex_2_base
f 85/85 86/86 87/87 88/88
