# Generated by tools/lamp_obj_converter.py; do not edit by hand.
mtllib off.mtl

o element_0
v 0.6875 0 0.6875
vt 0.5 0
v 0.3125 0 0.6875
vt 0.125 0
v 0.3125 0 0.3125
vt 0.125 0.375
v 0.6875 0 0.3125
vt 0.5 0.375
usemtl tex_1_base
f 1/1 2/2 3/3 4/4
v 0.3125 0.0625 0.6875
vt 0.125 0
v 0.6875 0.0625 0.6875
vt 0.125 0.375
v 0.6875 0.0625 0.3125
vt 0.5 0.375
v 0.3125 0.0625 0.3125
vt 0.5 0
usemtl tex_1_base
f 5/5 6/6 7/7 8/8
v 0.3125 0.0625 0.3125
vt 0.5 0.0625
v 0.3125 0 0.3125
vt 0.5 0
v 0.3125 0 0.6875
vt 0.125 0
v 0.3125 0.0625 0.6875
vt 0.125 0.0625
usemtl tex_1_base
f 9/9 10/10 11/11 12/12
v 0.6875 0.0625 0.6875
vt 0.125 0.3125
v 0.6875 0 0.6875
vt 0.125 0.375
v 0.6875 0 0.3125
vt 0.5 0.375
v 0.6875 0.0625 0.3125
vt 0.5 0.3125
usemtl tex_1_base
f 13/13 14/14 15/15 16/16
v 0.3125 0.0625 0.6875
vt 0.1875 0
v 0.3125 0 0.6875
vt 0.125 0
v 0.6875 0 0.6875
vt 0.125 0.375
v 0.6875 0.0625 0.6875
vt 0.1875 0.375
usemtl tex_1_base
f 17/17 18/18 19/19 20/20
v 0.6875 0.0625 0.3125
vt 0.4375 0.375
v 0.6875 0 0.3125
vt 0.5 0.375
v 0.3125 0 0.3125
vt 0.5 0
v 0.3125 0.0625 0.3125
vt 0.4375 0
usemtl tex_1_base
f 21/21 22/22 23/23 24/24

o element_1
v 0.4375 0.125 0.625
vt 0.5 0
v 0.5625 0.125 0.625
vt 0.5 0.125
v 0.5625 0.125 0.5
vt 0.625 0.125
v 0.4375 0.125 0.5
vt 0.625 0
usemtl tex_1_base
f 25/25 26/26 27/27 28/28
v 0.4375 0.125 0.5
vt 0.5 0.25
v 0.4375 0.0625 0.5
vt 0.5 0.3125
v 0.4375 0.0625 0.625
vt 0.625 0.3125
v 0.4375 0.125 0.625
vt 0.625 0.25
usemtl tex_1_base
f 29/29 30/30 31/31 32/32
v 0.5625 0.125 0.625
vt 0.5 0.125
v 0.5625 0.0625 0.625
vt 0.5 0.1875
v 0.5625 0.0625 0.5
vt 0.625 0.1875
v 0.5625 0.125 0.5
vt 0.625 0.125
usemtl tex_1_base
f 33/33 34/34 35/35 36/36
v 0.4375 0.125 0.625
vt 0.5 0.1875
v 0.4375 0.0625 0.625
vt 0.5 0.25
v 0.5625 0.0625 0.625
vt 0.625 0.25
v 0.5625 0.125 0.625
vt 0.625 0.1875
usemtl tex_1_base
f 37/37 38/38 39/39 40/40
v 0.5625 0.125 0.5
vt 0.5 0.3125
v 0.5625 0.0625 0.5
vt 0.5 0.375
v 0.4375 0.0625 0.5
vt 0.625 0.375
v 0.4375 0.125 0.5
vt 0.625 0.3125
usemtl tex_1_base
f 41/41 42/42 43/43 44/44

o element_2
v 0.46875 0.5 0.53125
vt 0 0
v 0.46875 0.125 0.53125
vt 0 0.375
v 0.46875 0.125 0.59375
vt 0.0625 0.375
v 0.46875 0.5 0.59375
vt 0.0625 0
usemtl tex_1_base
f 45/45 46/46 47/47 48/48
v 0.53125 0.5 0.59375
vt 0 0
v 0.53125 0.125 0.59375
vt 0 0.375
v 0.53125 0.125 0.53125
vt 0.0625 0.375
v 0.53125 0.5 0.53125
vt 0.0625 0
usemtl tex_1_base
f 49/49 50/50 51/51 52/52
v 0.46875 0.5 0.59375
vt 0 0
v 0.46875 0.125 0.59375
vt 0 0.375
v 0.53125 0.125 0.59375
vt 0.0625 0.375
v 0.53125 0.5 0.59375
vt 0.0625 0
usemtl tex_1_base
f 53/53 54/54 55/55 56/56
v 0.53125 0.5 0.53125
vt 0 0
v 0.53125 0.125 0.53125
vt 0 0.375
v 0.46875 0.125 0.53125
vt 0.0625 0.375
v 0.46875 0.5 0.53125
vt 0.0625 0
usemtl tex_1_base
f 57/57 58/58 59/59 60/60

o element_3
v 0.46875 0.809359405 0.284834919
vt 0 0
v 0.53125 0.809359405 0.284834919
vt 0 0.0625
v 0.53125 0.765165231 0.240640746
vt 0.0625 0.0625
v 0.46875 0.765165231 0.240640746
vt 0.0625 0
usemtl tex_1_base
f 61/61 62/62 63/63 64/64
v 0.46875 0.765165231 0.240640746
vt 0.0625 0
v 0.46875 0.455806014 0.549999962
vt 0.0625 0.4375
v 0.46875 0.500000188 0.594194136
vt 0.125 0.4375
v 0.46875 0.809359405 0.284834919
vt 0.125 0
usemtl tex_1_base
f 65/65 66/66 67/67 68/68
v 0.53125 0.809359405 0.284834919
vt 0.0625 0
v 0.53125 0.500000188 0.594194136
vt 0.0625 0.4375
v 0.53125 0.455806014 0.549999962
vt 0.125 0.4375
v 0.53125 0.765165231 0.240640746
vt 0.125 0
usemtl tex_1_base
f 69/69 70/70 71/71 72/72
v 0.46875 0.809359405 0.284834919
vt 0.0625 0
v 0.46875 0.500000188 0.594194136
vt 0.0625 0.4375
v 0.53125 0.500000188 0.594194136
vt 0.125 0.4375
v 0.53125 0.809359405 0.284834919
vt 0.125 0
usemtl tex_1_base
f 73/73 74/74 75/75 76/76
v 0.53125 0.765165231 0.240640746
vt 0.0625 0
v 0.53125 0.455806014 0.549999962
vt 0.0625 0.4375
v 0.46875 0.455806014 0.549999962
vt 0.125 0.4375
v 0.46875 0.765165231 0.240640746
vt 0.125 0
usemtl tex_1_base
f 77/77 78/78 79/79 80/80

o element_4
v 0.5625 0.794194174 0.237056156
vt 0.625 0.25
v 0.4375 0.794194174 0.237056156
vt 0.625 0.375
v 0.4375 0.705805826 0.325444504
vt 0.75 0.375
v 0.5625 0.705805826 0.325444504
vt 0.75 0.25
usemtl tex_1_base
f 81/81 82/82 83/83 84/84
v 0.4375 0.617417479 0.0602794609
vt 0.875 0.125
v 0.5625 0.617417479 0.0602794609
vt 0.875 0.25
v 0.5625 0.529029131 0.148667809
vt 0.75 0.25
v 0.4375 0.529029131 0.148667809
vt 0.75 0.125
usemtl tex_1_base
f 85/85 86/86 87/87 88/88
v 0.4375 0.529029131 0.148667809
vt 0.75 0.125
v 0.4375 0.705805826 0.325444504
vt 0.75 0.375
v 0.4375 0.794194174 0.237056156
vt 0.875 0.375
v 0.4375 0.617417479 0.0602794609
vt 0.875 0.125
usemtl tex_1_base
f 89/89 90/90 91/91 92/92
v 0.5625 0.617417479 0.0602794609
vt 0.75 0.125
v 0.5625 0.794194174 0.237056156
vt 0.75 0.375
v 0.5625 0.705805826 0.325444504
vt 0.875 0.375
v 0.5625 0.529029131 0.148667809
vt 0.875 0.125
usemtl tex_1_base
f 93/93 94/94 95/95 96/96
v 0.4375 0.617417479 0.0602794609
vt 0.875 0.125
v 0.4375 0.794194174 0.237056156
vt 0.875 0.375
v 0.5625 0.794194174 0.237056156
vt 0.75 0.375
v 0.5625 0.617417479 0.0602794609
vt 0.75 0.125
usemtl tex_1_base
f 97/97 98/98 99/99 100/100
v 0.5625 0.529029131 0.148667809
vt 0.875 0.125
v 0.5625 0.705805826 0.325444504
vt 0.875 0.375
v 0.4375 0.705805826 0.325444504
vt 0.75 0.375
v 0.4375 0.529029131 0.148667809
vt 0.75 0.125
usemtl tex_1_base
f 101/101 102/102 103/103 104/104

o element_5
v 0.467268026 0.629948873 0.293781716
vt 0.0625 0.4375
v 0.467268007 0.762531399 0.1611992
vt 0.0625 0.625
v 0.406249507 0.772096767 0.170764576
vt 0.125 0.625
v 0.406249526 0.63951424 0.303347093
vt 0.125 0.4375
usemtl tex_1_base
f 105/105 106/106 107/107 108/108
v 0.41315809 0.589945023 -0.0113871832
vt 0.375 0.375
v 0.413158109 0.457362496 0.121195333
vt 0.375 0.5625
v 0.352139609 0.466927863 0.13076071
vt 0.4375 0.5625
v 0.35213959 0.59951039 -0.00182180625
vt 0.4375 0.375
usemtl tex_1_base
f 109/109 110/110 111/111 112/112
v 0.35213959 0.59951039 -0.00182180625
vt 0.3125 0.375
v 0.406249507 0.772096767 0.170764576
vt 0.3125 0.625
v 0.467268007 0.762531399 0.1611992
vt 0.375 0.625
v 0.41315809 0.589945023 -0.0113871832
vt 0.375 0.375
usemtl tex_1_base
f 113/113 114/114 115/115 116/116
v 0.413158109 0.457362496 0.121195333
vt 0 0.375
v 0.467268026 0.629948873 0.293781716
vt 0 0.625
v 0.406249526 0.63951424 0.303347093
vt 0.0625 0.625
v 0.352139609 0.466927863 0.13076071
vt 0.0625 0.375
usemtl tex_1_base
f 117/117 118/118 119/119 120/120
v 0.41315809 0.589945023 -0.0113871832
vt 0.125 0.375
v 0.467268007 0.762531399 0.1611992
vt 0.125 0.625
v 0.467268026 0.629948873 0.293781716
vt 0.3125 0.625
v 0.413158109 0.457362496 0.121195333
vt 0.3125 0.375
usemtl tex_1_base
f 121/121 122/122 123/123 124/124
v 0.352139609 0.466927863 0.13076071
vt 0.125 0.375
v 0.406249526 0.63951424 0.303347093
vt 0.125 0.625
v 0.406249507 0.772096767 0.170764576
vt 0.3125 0.625
v 0.35213959 0.59951039 -0.00182180625
vt 0.3125 0.375
usemtl tex_1_base
f 125/125 126/126 127/127 128/128

o element_6
v 0.59523114 0.639628657 0.303461502
vt 0.125 0.625
v 0.595231136 0.77221118 0.170878982
vt 0.125 0.4375
v 0.534212634 0.762645812 0.161313616
vt 0.0625 0.4375
v 0.534212639 0.630063289 0.293896136
vt 0.0625 0.625
usemtl tex_1_base
f 129/129 130/130 131/131 132/132
v 0.649341023 0.599624799 -0.00170740531
vt 0.375 0.375
v 0.649341027 0.467042276 0.130875115
vt 0.375 0.5625
v 0.588322526 0.457476908 0.121309748
vt 0.4375 0.5625
v 0.588322521 0.590059431 -0.0112727715
vt 0.4375 0.375
usemtl tex_1_base
f 133/133 134/134 135/135 136/136
v 0.588322521 0.590059431 -0.0112727715
vt 0.3125 0.375
v 0.534212634 0.762645812 0.161313616
vt 0.3125 0.625
v 0.595231136 0.77221118 0.170878982
vt 0.375 0.625
v 0.649341023 0.599624799 -0.00170740531
vt 0.375 0.375
usemtl tex_1_base
f 137/137 138/138 139/139 140/140
v 0.649341027 0.467042276 0.130875115
vt 0 0.375
v 0.59523114 0.639628657 0.303461502
vt 0 0.625
v 0.534212639 0.630063289 0.293896136
vt 0.0625 0.625
v 0.588322526 0.457476908 0.121309748
vt 0.0625 0.375
usemtl tex_1_base
f 141/141 142/142 143/143 144/144
v 0.649341023 0.599624799 -0.00170740531
vt 0.125 0.375
v 0.595231136 0.77221118 0.170878982
vt 0.125 0.625
v 0.59523114 0.639628657 0.303461502
vt 0.3125 0.625
v 0.649341027 0.467042276 0.130875115
vt 0.3125 0.375
usemtl tex_1_base
f 145/145 146/146 147/147 148/148
v 0.588322526 0.457476908 0.121309748
vt 0.125 0.375
v 0.534212639 0.630063289 0.293896136
vt 0.125 0.625
v 0.534212634 0.762645812 0.161313616
vt 0.3125 0.625
v 0.588322521 0.590059431 -0.0112727715
vt 0.3125 0.375
usemtl tex_1_base
f 149/149 150/150 151/151 152/152

o element_7
v 0.59375 0.773345233 0.16996611
vt 0.0625 0.4375
v 0.40625 0.773345233 0.16996611
vt 0.0625 0.625
v 0.40625 0.720633268 0.203547335
vt 0.125 0.625
v 0.59375 0.720633268 0.203547335
vt 0.125 0.4375
usemtl tex_1_base
f 153/153 154/154 155/155 156/156
v 0.40625 0.639020331 -0.0408817516
vt 0.375 0.375
v 0.59375 0.639020331 -0.0408817516
vt 0.375 0.5625
v 0.59375 0.586308366 -0.00730052603
vt 0.4375 0.5625
v 0.40625 0.586308366 -0.00730052603
vt 0.4375 0.375
usemtl tex_1_base
f 157/157 158/158 159/159 160/160
v 0.40625 0.586308366 -0.00730052603
vt 0.3125 0.375
v 0.40625 0.720633268 0.203547335
vt 0.3125 0.625
v 0.40625 0.773345233 0.16996611
vt 0.375 0.625
v 0.40625 0.639020331 -0.0408817516
vt 0.375 0.375
usemtl tex_1_base
f 161/161 162/162 163/163 164/164
v 0.59375 0.639020331 -0.0408817516
vt 0 0.375
v 0.59375 0.773345233 0.16996611
vt 0 0.625
v 0.59375 0.720633268 0.203547335
vt 0.0625 0.625
v 0.59375 0.586308366 -0.00730052603
vt 0.0625 0.375
usemtl tex_1_base
f 165/165 166/166 167/167 168/168
v 0.40625 0.639020331 -0.0408817516
vt 0.125 0.375
v 0.40625 0.773345233 0.16996611
vt 0.125 0.625
v 0.59375 0.773345233 0.16996611
vt 0.3125 0.625
v 0.59375 0.639020331 -0.0408817516
vt 0.3125 0.375
usemtl tex_1_base
f 169/169 170/170 171/171 172/172
v 0.59375 0.586308366 -0.00730052603
vt 0.125 0.375
v 0.59375 0.720633268 0.203547335
vt 0.125 0.625
v 0.40625 0.720633268 0.203547335
vt 0.3125 0.625
v 0.40625 0.586308366 -0.00730052603
vt 0.3125 0.375
usemtl tex_1_base
f 173/173 174/174 175/175 176/176

o element_8
v 0.59375 0.673095623 0.250634693
vt 0.0625 0.4375
v 0.40625 0.673095623 0.250634693
vt 0.0625 0.625
v 0.40625 0.639514398 0.303346659
vt 0.125 0.625
v 0.59375 0.639514398 0.303346659
vt 0.125 0.4375
usemtl tex_1_base
f 177/177 178/178 179/179 180/180
v 0.40625 0.462247762 0.116309791
vt 0.375 0.375
v 0.59375 0.462247762 0.116309791
vt 0.375 0.5625
v 0.59375 0.428666536 0.169021757
vt 0.4375 0.5625
v 0.40625 0.428666536 0.169021757
vt 0.4375 0.375
usemtl tex_1_base
f 181/181 182/182 183/183 184/184
v 0.40625 0.428666536 0.169021757
vt 0.3125 0.375
v 0.40625 0.639514398 0.303346659
vt 0.3125 0.625
v 0.40625 0.673095623 0.250634693
vt 0.375 0.625
v 0.40625 0.462247762 0.116309791
vt 0.375 0.375
usemtl tex_1_base
f 185/185 186/186 187/187 188/188
v 0.59375 0.462247762 0.116309791
vt 0 0.375
v 0.59375 0.673095623 0.250634693
vt 0 0.625
v 0.59375 0.639514398 0.303346659
vt 0.0625 0.625
v 0.59375 0.428666536 0.169021757
vt 0.0625 0.375
usemtl tex_1_base
f 189/189 190/190 191/191 192/192
v 0.40625 0.462247762 0.116309791
vt 0.125 0.375
v 0.40625 0.673095623 0.250634693
vt 0.125 0.625
v 0.59375 0.673095623 0.250634693
vt 0.3125 0.625
v 0.59375 0.462247762 0.116309791
vt 0.3125 0.375
usemtl tex_1_base
f 193/193 194/194 195/195 196/196
v 0.59375 0.428666536 0.169021757
vt 0.125 0.375
v 0.59375 0.639514398 0.303346659
vt 0.125 0.625
v 0.40625 0.639514398 0.303346659
vt 0.3125 0.625
v 0.40625 0.428666536 0.169021757
vt 0.3125 0.375
usemtl tex_1_base
f 197/197 198/198 199/199 200/200
